<?xml version="1.0" encoding="UTF-8" standalone="no"?>
<!DOCTYPE svg PUBLIC "-//W3C//DTD SVG 1.1//EN"
 "http://www.w3.org/Graphics/SVG/1.1/DTD/svg11.dtd">
<!-- Generated by graphviz version 12.2.1 (20241206.2353)
 -->
<!-- Title: Tang Nodal Pages: 1 -->
<svg width="168pt" height="169pt"
 viewBox="0.00 0.00 167.50 168.75" xmlns="http://www.w3.org/2000/svg" xmlns:xlink="http://www.w3.org/1999/xlink">
<g id="graph0" class="graph" transform="scale(1 1) rotate(0) translate(4 164.75)">
<title>Tang Nodal</title>
<polygon fill="#3b3b3b" stroke="none" points="-4,4 -4,-164.75 163.5,-164.75 163.5,4 -4,4"/>
<!-- _Root_A -->
<g id="node1" class="node">
<title>_Root_A</title>
<polygon fill="#853f97" stroke="none" points="12,-128.75 12,-152.75 52.75,-152.75 52.75,-128.75 12,-128.75"/>
<text text-anchor="start" x="29.38" y="-142.15" font-family="Helvetica,sans-Serif" font-weight="bold" font-size="8.00" fill="#bababa">A</text>
<text text-anchor="start" x="25.25" y="-134.15" font-family="Helvetica,sans-Serif" font-style="italic" font-size="8.00" fill="#bababa">Add</text>
<polygon fill="#2e2e2e" stroke="none" points="12,-115 12,-128.75 52.75,-128.75 52.75,-115 12,-115"/>
<text text-anchor="start" x="17" y="-119.15" font-family="Helvetica,sans-Serif" font-size="8.00" fill="#bababa">  input1  </text>
<polygon fill="#3a3a3a" stroke="none" points="12,-101.25 12,-115 52.75,-115 52.75,-101.25 12,-101.25"/>
<text text-anchor="start" x="14" y="-105.4" font-family="Helvetica,sans-Serif" font-size="8.00" fill="#bababa">  weight1  </text>
<polygon fill="#2e2e2e" stroke="none" points="12,-87.5 12,-101.25 52.75,-101.25 52.75,-87.5 12,-87.5"/>
<text text-anchor="start" x="17" y="-91.65" font-family="Helvetica,sans-Serif" font-size="8.00" fill="#bababa">  input2  </text>
<polygon fill="#3a3a3a" stroke="none" points="12,-73.75 12,-87.5 52.75,-87.5 52.75,-73.75 12,-73.75"/>
<text text-anchor="start" x="14" y="-77.9" font-family="Helvetica,sans-Serif" font-size="8.00" fill="#bababa">  weight2  </text>
<polygon fill="#2e2e2e" stroke="none" points="12,-60 12,-73.75 52.75,-73.75 52.75,-60 12,-60"/>
<text text-anchor="start" x="16.62" y="-64.15" font-family="Helvetica,sans-Serif" font-size="8.00" fill="#bababa">  output  </text>
<polygon fill="none" stroke="#bababa" stroke-width="4" points="10,-58 10,-154.75 54.75,-154.75 54.75,-58 10,-58"/>
</g>
<!-- _Root_B -->
<g id="node2" class="node">
<title>_Root_B</title>
<polygon fill="#853f97" stroke="none" points="109.75,-73.75 109.75,-97.75 150.5,-97.75 150.5,-73.75 109.75,-73.75"/>
<text text-anchor="start" x="127.12" y="-87.15" font-family="Helvetica,sans-Serif" font-weight="bold" font-size="8.00" fill="#bababa">B</text>
<text text-anchor="start" x="123" y="-79.15" font-family="Helvetica,sans-Serif" font-style="italic" font-size="8.00" fill="#bababa">Add</text>
<polygon fill="#2e2e2e" stroke="none" points="109.75,-60 109.75,-73.75 150.5,-73.75 150.5,-60 109.75,-60"/>
<text text-anchor="start" x="114.75" y="-64.15" font-family="Helvetica,sans-Serif" font-size="8.00" fill="#bababa">  input1  </text>
<polygon fill="#3a3a3a" stroke="none" points="109.75,-46.25 109.75,-60 150.5,-60 150.5,-46.25 109.75,-46.25"/>
<text text-anchor="start" x="111.75" y="-50.4" font-family="Helvetica,sans-Serif" font-size="8.00" fill="#bababa">  weight1  </text>
<polygon fill="#2e2e2e" stroke="none" points="109.75,-32.5 109.75,-46.25 150.5,-46.25 150.5,-32.5 109.75,-32.5"/>
<text text-anchor="start" x="114.75" y="-36.65" font-family="Helvetica,sans-Serif" font-size="8.00" fill="#bababa">  input2  </text>
<polygon fill="#3a3a3a" stroke="none" points="109.75,-18.75 109.75,-32.5 150.5,-32.5 150.5,-18.75 109.75,-18.75"/>
<text text-anchor="start" x="111.75" y="-22.9" font-family="Helvetica,sans-Serif" font-size="8.00" fill="#bababa">  weight2  </text>
<polygon fill="#2e2e2e" stroke="none" points="109.75,-5 109.75,-18.75 150.5,-18.75 150.5,-5 109.75,-5"/>
<text text-anchor="start" x="114.38" y="-9.15" font-family="Helvetica,sans-Serif" font-size="8.00" fill="#bababa">  output  </text>
<polygon fill="none" stroke="#262626" points="108.75,-4 108.75,-98.75 151.5,-98.75 151.5,-4 108.75,-4"/>
</g>
<!-- _Root_A&#45;&gt;_Root_B -->
<g id="edge1" class="edge">
<title>_Root_A:_Root_A_output&#45;&gt;_Root_B:_Root_B_input1</title>
<path fill="none" stroke="#ff0000" d="M53.75,-66.88C75.9,-66.88 83,-66.88 102.33,-66.88"/>
<polygon fill="#ff0000" stroke="#ff0000" points="102.24,-68.63 107.24,-66.88 102.24,-65.13 102.24,-68.63"/>
</g>
</g>
</svg>
